#!OML:ASF E:\emotionWalksFemale\Project 1\Capture day 1\Session 1\Female1.ASF
:FULLY-SPECIFIED
:DEGREES
1487
root 10.3949 15.5503 0.27076 788.897 -97.7582 -428.407
lowerback 9.65826 -0.209611 -2.24476
upperback -3.85657 -0.776101 -1.75434
thorax -9.55261 -0.314016 -0.470051
lowerneck -6.77687 0.957217 -1.54127
upperneck 12.0292 1.12167 2.08366
head 4.69645 0.570519 0.959255
rclavicle -7.57867e-015 -2.3059e-014
rhumerus -48.3339 3.91615 -82.3209
rradius 27.7863
rwrist 23.5825
rhand -10.5513 -51.9203
rfingers 7.12502
rthumb -164.547 98.6773
lclavicle -7.57867e-015 -2.3059e-014
lhumerus -23.3438 -3.86387 72.7573
lradius 37.9324
lwrist -14.1467
lhand 2.68412 -29.094
lfingers 7.12502
lthumb 28.1587 -1.18867
rfemur -20.2522 -4.78495 19.17
rtibia 73.9309
rfoot -8.82065 -10.3939
rtoes 5.49626
lfemur -9.19546 -17.8452 -29.5495
ltibia 21.7716
lfoot -15.1741 18.7618
ltoes -24.991
1488
root 10.225 15.5355 0.292573 788.831 -97.845 -428.555
lowerback 9.74893 -0.324092 -2.43462
upperback -3.79076 -0.957266 -1.76068
thorax -9.53015 -0.390406 -0.337145
lowerneck -6.7711 1.13523 -1.37689
upperneck 12.1276 1.36223 1.90695
head 4.72379 0.684323 0.892636
rclavicle -1.01877e-015 -1.70955e-014
rhumerus -49.0154 3.37019 -81.1533
rradius 27.7855
rwrist 22.229
rhand -10.6455 -52.534
rfingers 7.12502
rthumb -164.638 98.0567
lclavicle -1.01877e-015 -1.70955e-014
lhumerus -22.1731 -4.50307 72.4225
lradius 38.9674
lwrist -13.6533
lhand 2.60872 -29.5475
lfingers 7.12502
lthumb 28.0866 -1.6303
rfemur -21.9177 -4.96238 19.3294
rtibia 73.4468
rfoot -9.87822 -11.1706
rtoes 1.8653
lfemur -8.17811 -18.0753 -30.1168
ltibia 21.7835
lfoot -15.452 19.3606
ltoes -27.1462
1489
root 10.0571 15.5233 0.309829 789.313 -97.7229 -429.1
lowerback 9.77918 -0.542492 -2.56705
upperback -3.819 -1.24821 -1.54501
thorax -9.56774 -0.513306 0.019549
lowerneck -6.58576 1.35369 -1.55491
upperneck 12.1342 1.68727 1.79936
head 4.6884 0.827609 0.906197
rclavicle -2.5345e-015 9.14409e-015
rhumerus -49.6149 3.17771 -79.7012
rradius 27.7881
rwrist 21.6658
rhand -9.24574 -52.3972
rfingers 7.12502
rthumb -163.29 98.302
lclavicle -2.5345e-015 9.14409e-015
lhumerus -20.7271 -4.96469 72.025
lradius 39.6564
lwrist -12.8177
lhand 2.91646 -29.7827
lfingers 7.12502
lthumb 28.3807 -1.91413
rfemur -23.6531 -5.20083 19.6812
rtibia 72.6711
rfoot -10.8273 -12.0312
rtoes 2.26506
lfemur -7.39957 -18.1712 -30.4215
ltibia 21.8556
lfoot -15.661 19.7988
ltoes -29.5194
1490
root 9.88873 15.5088 0.329923 790.09 -97.7656 -429.899
lowerback 9.76051 -0.745624 -2.80229
upperback -3.82858 -1.53837 -1.40304
thorax -9.5524 -0.633459 0.354591
lowerneck -6.44597 1.56569 -1.76682
upperneck 12.0237 1.99351 1.83141
head 4.62298 0.970476 0.966226
rclavicle -1.21259e-014 -8.34896e-015
rhumerus -50.0626 3.33128 -78.5581
rradius 27.7809
rwrist 20.8705
rhand -8.1034 -52.3779
rfingers 7.12502
rthumb -162.191 98.4176
lclavicle -1.21259e-014 -8.34896e-015
lhumerus -19.2648 -5.24542 71.596
lradius 40.293
lwrist -12.0184
lhand 3.0131 -29.4538
lfingers 7.12502
lthumb 28.4731 -1.6006
rfemur -25.3771 -5.26176 19.7791
rtibia 71.6651
rfoot -11.7648 -12.7982
rtoes 4.08236
lfemur -6.68324 -18.1454 -30.8965
ltibia 21.9871
lfoot -16.5257 19.9269
ltoes -28.8584
1491
root 9.72154 15.4869 0.350735 791.634 -97.8879 -431.555
lowerback 9.83088 -0.926851 -3.09036
upperback -3.77122 -1.82333 -1.41575
thorax -9.51655 -0.754843 0.554211
lowerneck -6.57425 1.69883 -1.82525
upperneck 12.0314 2.1747 1.90438
head 4.64192 1.06233 1.01008
rclavicle -6.58474e-015 4.77083e-015
rhumerus -50.456 3.02787 -77.4065
rradius 27.8696
rwrist 20.2206
rhand -7.67706 -52.9367
rfingers 7.12502
rthumb -161.78 97.8966
lclavicle -6.58474e-015 4.77083e-015
lhumerus -17.6404 -5.91627 71.0066
lradius 40.8625
lwrist -10.9799
lhand 3.13338 -29.3888
lfingers 7.12502
lthumb 28.588 -1.55499
rfemur -26.9196 -5.23395 19.6933
rtibia 70.4297
rfoot -12.7068 -13.4338
rtoes 4.17821
lfemur -5.8241 -18.4449 -31.5418
ltibia 22.0571
lfoot -17.1449 20.3964
ltoes -29.0077
1492
root 9.55118 15.4673 0.365179 793.622 -98.0061 -433.696
lowerback 9.93814 -1.10565 -3.54673
upperback -3.70744 -2.12411 -1.37011
thorax -9.48447 -0.871495 0.914043
lowerneck -6.70755 1.79058 -1.77231
upperneck 12.0465 2.31282 1.77291
head 4.66876 1.1256 0.970619
rclavicle 3.65267e-015 -2.26615e-014
rhumerus -50.9124 2.48329 -76.0435
rradius 28.1116
rwrist 19.8953
rhand -7.01036 -53.542
rfingers 7.12502
rthumb -161.139 97.3524
lclavicle 3.65267e-015 -2.26615e-014
lhumerus -16.156 -6.75529 70.3799
lradius 41.5742
lwrist -9.87427
lhand 3.26689 -29.4557
lfingers 7.12502
lthumb 28.7156 -1.6434
rfemur -28.2237 -5.24705 19.5898
rtibia 68.8948
rfoot -13.6631 -14.2551
rtoes 2.8378
lfemur -4.83581 -18.9884 -32.2165
ltibia 22.0122
lfoot -17.4237 21.1281
ltoes -30.2101
1493
root 9.37775 15.45 0.373642 795.215 -98.1641 -435.49
lowerback 10.1101 -1.20247 -4.11436
upperback -3.65338 -2.3337 -1.30732
thorax -9.49609 -0.935977 1.34042
lowerneck -6.62253 1.88457 -1.40745
upperneck 11.8754 2.45673 1.31762
head 4.61042 1.18664 0.776926
rclavicle -1.84373e-014 7.95139e-016
rhumerus -51.5145 2.63752 -75.1541
rradius 28.5515
rwrist 18.7566
rhand -6.48711 -54.0993
rfingers 7.12502
rthumb -160.636 96.8449
lclavicle -1.84373e-014 7.95139e-016
lhumerus -14.7996 -7.7185 69.7307
lradius 42.3732
lwrist -8.8759
lhand 3.13761 -29.1806
lfingers 7.12502
lthumb 28.592 -1.34739
rfemur -29.3079 -5.2008 19.4386
rtibia 67.0494
rfoot -14.6591 -15.421
rtoes 2.75524
lfemur -3.68705 -19.1119 -32.8841
ltibia 21.7177
lfoot -17.9043 21.3664
ltoes -29.7688
1494
root 9.20748 15.4324 0.382849 796.424 -98.1648 -436.97
lowerback 10.4122 -1.29316 -4.34791
upperback -3.57797 -2.49817 -1.27484
thorax -9.57256 -0.998032 1.54359
lowerneck -6.54735 1.9409 -1.37678
upperneck 11.6882 2.53687 1.27708
head 4.54024 1.22684 0.761624
rclavicle 4.44781e-015 3.97569e-015
rhumerus -52.1747 3.387 -74.7731
rradius 29.1466
rwrist 17.1681
rhand -5.98172 -54.5322
rfingers 7.12502
rthumb -160.15 96.4615
lclavicle 4.44781e-015 3.97569e-015
lhumerus -13.3178 -8.5135 69.0697
lradius 43.0079
lwrist -8.15036
lhand 3.23727 -29.1389
lfingers 7.12502
lthumb 28.6873 -1.32178
rfemur -30.1372 -4.95756 19.354
rtibia 64.8082
rfoot -15.8561 -16.4369
rtoes 6.98882
lfemur -2.42494 -18.8466 -33.3473
ltibia 21.2842
lfoot -18.1584 21.5084
ltoes -31.4651
1495
root 9.02677 15.4141 0.401538 796.98 -98.4859 -437.978
lowerback 10.6621 -1.36203 -4.6992
upperback -3.40189 -2.65664 -1.36113
thorax -9.50779 -1.05999 1.68245
lowerneck -6.46401 1.98667 -1.49796
upperneck 11.5069 2.60497 1.35363
head 4.46703 1.26126 0.806126
rclavicle 3.35946e-014 1.82882e-014
rhumerus -52.6798 3.90209 -74.1829
rradius 29.5712
rwrist 16.4996
rhand -5.02316 -54.525
rfingers 7.12502
rthumb -159.229 96.5667
lclavicle 3.35946e-014 1.82882e-014
lhumerus -11.7871 -9.05996 68.4252
lradius 43.4478
lwrist -7.80909
lhand 3.6006 -29.3777
lfingers 7.12502
lthumb 29.0343 -1.61988
rfemur -30.5436 -4.60177 18.7472
rtibia 62.2799
rfoot -16.6741 -17.0795
rtoes 10.0014
lfemur -0.780707 -18.9315 -34.325
ltibia 20.7605
lfoot -18.5901 21.9512
ltoes -32.7342
1496
root 8.85071 15.4019 0.408984 798.284 -98.5226 -439.532
lowerback 10.8455 -1.46849 -4.97702
upperback -3.31967 -2.84663 -1.35312
thorax -9.50154 -1.13563 1.88622
lowerneck -6.36367 2.04296 -1.15431
upperneck 10.9757 2.69265 0.964906
head 4.76655 1.29366 0.69709
rclavicle 7.20594e-016 -1.19271e-014
rhumerus -53.0796 4.0664 -73.3932
rradius 29.7965
rwrist 16.3615
rhand -3.97735 -54.2916
rfingers 7.12502
rthumb -158.224 96.9134
lclavicle 7.20594e-016 -1.19271e-014
lhumerus -10.4478 -10.108 67.62
lradius 44.0708
lwrist -7.27864
lhand 3.39693 -29.1996
lfingers 7.12502
lthumb 28.8398 -1.40837
rfemur -30.9823 -3.99815 18.4918
rtibia 59.4002
rfoot -16.6265 -18.5631
rtoes 7.84078
lfemur 0.521642 -18.9915 -34.8462
ltibia 20.2837
lfoot -18.9256 21.9519
ltoes -32.0795
1497
root 8.67319 15.3837 0.406261 799.272 -98.5899 -440.793
lowerback 11.0445 -1.50997 -5.38816
upperback -3.21819 -2.97137 -1.3509
thorax -9.48064 -1.17322 2.14717
lowerneck -6.4166 2.06489 -0.901137
upperneck 10.9287 2.71665 0.791515
head 4.76605 1.30783 0.594662
rclavicle 1.23246e-014 -8.74653e-015
rhumerus -53.5634 4.5675 -73.0053
rradius 30.2052
rwrist 15.6318
rhand -3.52693 -54.4908
rfingers 7.12502
rthumb -157.792 96.765
lclavicle 1.23246e-014 -8.74653e-015
lhumerus -9.19359 -11.2749 66.7346
lradius 44.8024
lwrist -6.58449
lhand 3.00045 -29.1538
lfingers 7.12502
lthumb 28.461 -1.29862
rfemur -31.2386 -3.3929 18.175
rtibia 56.217
rfoot -16.4834 -20.118
rtoes 5.48998
lfemur 1.96025 -18.7121 -35.3064
ltibia 19.5003
lfoot -18.8066 21.892
ltoes -31.883
